<svg width="32" height="32" viewBox="0 0 32 32" fill="none" xmlns="http://www.w3.org/2000/svg">
  <!-- Background circle -->
  <circle cx="16" cy="16" r="15" fill="#3B82F6" stroke="#1E40AF" stroke-width="2"/>
  
  <!-- Asset management icon - building/gear combination -->
  <g transform="translate(6, 6)">
    <!-- Building icon -->
    <rect x="2" y="8" width="8" height="12" fill="white" rx="1"/>
    <rect x="4" y="10" width="1.5" height="1.5" fill="#3B82F6"/>
    <rect x="6.5" y="10" width="1.5" height="1.5" fill="#3B82F6"/>
    <rect x="4" y="12.5" width="1.5" height="1.5" fill="#3B82F6"/>
    <rect x="6.5" y="12.5" width="1.5" height="1.5" fill="#3B82F6"/>
    <rect x="4" y="15" width="1.5" height="1.5" fill="#3B82F6"/>
    <rect x="6.5" y="15" width="1.5" height="1.5" fill="#3B82F6"/>
    
    <!-- Gear icon -->
    <g transform="translate(12, 2)">
      <circle cx="4" cy="4" r="2" fill="white"/>
      <circle cx="4" cy="4" r="1" fill="#3B82F6"/>
      <rect x="3.5" y="0" width="1" height="1.5" fill="white"/>
      <rect x="3.5" y="6.5" width="1" height="1.5" fill="white"/>
      <rect x="0" y="3.5" width="1.5" height="1" fill="white"/>
      <rect x="6.5" y="3.5" width="1.5" height="1" fill="white"/>
    </g>
  </g>
</svg>
